<?xml version="1.0" standalone="no"?>
<!DOCTYPE svg PUBLIC "-//W3C//DTD SVG 20010904//EN"
 "http://www.w3.org/TR/2001/REC-SVG-20010904/DTD/svg10.dtd">
<svg version="1.0" xmlns="http://www.w3.org/2000/svg"
 width="512.000000pt" height="512.000000pt" viewBox="0 0 512.000000 512.000000"
 preserveAspectRatio="xMidYMid meet">

<g transform="translate(0.000000,512.000000) scale(0.100000,-0.100000)"
fill="#000000" stroke="none">
<path d="M4797 5014 c-51 -28 -60 -86 -21 -133 41 -49 112 -41 142 16 41 77
-44 160 -121 117z m85 -59 c9 -21 8 -28 -7 -45 -24 -27 -51 -25 -70 4 -23 34
-5 66 36 66 22 0 32 -6 41 -25z"/>
<path d="M1486 4904 c-25 -25 -20 -71 10 -91 24 -15 29 -15 53 -2 16 9 27 25
29 43 6 53 -55 87 -92 50z m62 -26 c14 -14 -2 -48 -22 -48 -20 0 -37 25 -30
44 7 19 35 21 52 4z"/>
<path d="M2526 4751 c-25 -28 -17 -72 16 -91 32 -17 55 -8 75 30 28 57 -49
108 -91 61z m68 -27 c7 -19 -10 -44 -29 -44 -7 0 -18 7 -25 15 -10 12 -10 18
0 30 16 20 46 19 54 -1z"/>
<path d="M2575 4366 c-38 -27 -1 -159 48 -171 31 -8 63 8 72 35 8 24 -20 114
-42 135 -18 19 -53 19 -78 1z"/>
<path d="M2953 4368 c-16 -21 -43 -97 -43 -122 0 -45 56 -71 93 -43 19 14 47
88 47 123 0 12 -7 30 -16 38 -19 19 -68 21 -81 4z"/>
<path d="M2753 4160 c-121 -25 -216 -123 -230 -239 -7 -65 8 -91 52 -91 38 0
65 28 65 68 0 36 40 100 76 123 51 31 111 34 164 7 49 -25 90 -77 90 -114 0
-69 49 -110 96 -79 24 16 26 21 22 73 -12 166 -170 285 -335 252z"/>
<path d="M2301 4091 c-11 -11 -21 -28 -21 -36 0 -44 107 -97 158 -79 23 8 27
15 27 49 0 36 -4 42 -37 58 -61 30 -102 33 -127 8z"/>
<path d="M3200 4092 c-26 -10 -50 -28 -59 -44 -13 -23 -13 -28 3 -53 16 -24
23 -27 57 -22 21 3 55 13 76 23 30 15 39 25 41 50 4 37 -19 64 -51 63 -12 0
-42 -8 -67 -17z"/>
<path d="M1395 4033 c-39 -20 -93 -71 -110 -104 -11 -21 -26 -29 -73 -38 -35
-7 -86 -28 -127 -53 -63 -37 -76 -41 -158 -47 -75 -6 -92 -10 -107 -28 -34
-43 -36 -171 -4 -235 19 -38 59 -63 161 -102 220 -84 379 -185 476 -302 247
-300 379 -632 364 -912 -4 -73 -12 -115 -25 -140 -17 -35 -34 -48 -159 -127
-87 -54 -93 -147 -13 -188 31 -16 58 -17 220 -15 210 3 229 9 307 90 76 78
105 162 118 338 17 227 56 385 110 450 19 23 35 47 35 54 0 26 -32 56 -59 56
-103 0 -180 -213 -207 -570 -11 -157 -48 -241 -124 -280 -33 -17 -58 -20 -172
-20 l-133 0 60 33 c76 42 130 111 147 187 7 31 13 114 12 190 0 112 -5 154
-27 244 -80 321 -327 710 -540 850 -89 58 -211 119 -330 166 -59 23 -109 46
-112 50 -2 4 -7 25 -11 47 l-6 40 63 6 c48 5 88 19 164 57 74 37 111 50 143
50 57 0 78 12 91 53 13 39 55 82 70 73 6 -4 13 -23 16 -44 15 -90 15 -90 162
-136 45 -14 133 -50 195 -80 131 -63 264 -107 398 -131 126 -23 462 -31 645
-15 368 31 496 25 647 -30 212 -77 334 -230 378 -475 6 -33 15 -161 21 -285
10 -246 34 -532 49 -595 14 -61 12 -153 -5 -189 -27 -56 -57 -66 -200 -66
l-127 0 46 51 c55 61 71 112 56 169 -26 95 -252 308 -394 371 -88 39 -161 49
-436 64 -151 9 -312 22 -358 31 -78 15 -84 15 -102 -1 -28 -26 -26 -71 4 -90
40 -26 166 -43 411 -55 269 -13 351 -23 422 -55 100 -45 221 -143 304 -248 37
-46 38 -50 25 -75 -8 -15 -24 -36 -36 -47 -37 -32 -80 -107 -80 -138 0 -81 38
-97 236 -97 178 0 217 8 274 58 83 71 105 169 77 342 -21 125 -34 284 -47 560
-5 124 -17 268 -26 320 -42 251 -164 425 -369 526 -182 89 -338 108 -680 79
-152 -12 -271 -16 -425 -13 -304 7 -426 34 -660 143 -74 35 -168 73 -207 86
-67 21 -74 26 -84 58 -44 134 -96 175 -174 134z"/>
<path d="M4682 3854 c-50 -35 -8 -115 53 -100 33 8 50 49 34 79 -22 40 -50 47
-87 21z m62 -29 c8 -23 -4 -45 -25 -45 -11 0 -22 7 -25 15 -9 23 3 45 25 45
10 0 21 -7 25 -15z"/>
<path d="M212 3534 c-12 -8 -22 -26 -22 -40 0 -29 32 -64 60 -64 26 0 60 34
60 60 0 25 -34 60 -58 60 -10 0 -28 -7 -40 -16z m63 -44 c0 -18 -6 -26 -23
-28 -13 -2 -25 3 -28 12 -10 26 4 48 28 44 17 -2 23 -10 23 -28z"/>
<path d="M1561 2648 c-1 -126 -28 -308 -57 -398 -35 -106 -69 -143 -171 -192
-66 -31 -90 -49 -111 -80 -33 -51 -43 -145 -18 -183 16 -24 20 -25 132 -25
102 0 115 2 110 16 -3 9 -6 36 -6 60 l0 44 -66 0 c-84 0 -81 14 13 60 132 64
182 121 228 258 12 37 30 109 39 160 15 92 15 93 -10 170 -13 42 -38 104 -53
137 l-29 60 -1 -87z"/>
<path d="M3240 2215 c0 -4 7 -31 16 -61 26 -90 19 -112 -54 -162 -83 -58 -114
-100 -120 -163 -4 -38 -1 -54 13 -69 16 -18 31 -20 148 -20 118 0 129 2 123
17 -4 9 -10 36 -13 60 l-6 42 -59 3 -60 3 58 40 c78 55 97 82 101 152 4 58 4
58 -39 91 -58 44 -108 75 -108 67z"/>
<path d="M20 620 c-11 -11 -20 -29 -20 -40 0 -26 34 -60 60 -60 11 0 29 9 40
20 11 11 20 29 20 40 0 26 -34 60 -60 60 -11 0 -29 -9 -40 -20z"/>
<path d="M207 623 c-25 -29 -26 -63 -1 -87 24 -24 145 -22 167 2 24 26 21 68
-5 86 -32 23 -140 22 -161 -1z"/>
<path d="M482 624 c-27 -19 -29 -64 -4 -87 17 -16 176 -17 2084 -17 1988 0
2066 1 2081 18 24 26 21 68 -5 86 -20 14 -234 16 -2078 16 -1844 0 -2058 -2
-2078 -16z"/>
<path d="M4752 624 c-14 -10 -22 -26 -22 -44 0 -47 22 -60 100 -60 49 0 73 4
84 16 25 24 24 58 -1 87 -21 23 -129 24 -161 1z"/>
<path d="M5020 620 c-38 -38 -12 -100 42 -100 24 0 58 35 58 60 0 11 -9 29
-20 40 -11 11 -29 20 -40 20 -11 0 -29 -9 -40 -20z"/>
</g>
</svg>
