<?xml version="1.0" standalone="no"?>
<!DOCTYPE svg PUBLIC "-//W3C//DTD SVG 20010904//EN"
 "http://www.w3.org/TR/2001/REC-SVG-20010904/DTD/svg10.dtd">
<svg version="1.0" xmlns="http://www.w3.org/2000/svg"
 width="512.000000pt" height="512.000000pt" viewBox="0 0 512.000000 512.000000"
 preserveAspectRatio="xMidYMid meet">

<g transform="translate(0.000000,512.000000) scale(0.100000,-0.100000)"
fill="#000000" stroke="none">
<path d="M595 4736 c-248 -57 -440 -226 -520 -454 -82 -236 -31 -512 128 -688
l44 -48 -39 -83 c-294 -627 -271 -1498 58 -2155 59 -118 134 -211 221 -275
143 -106 261 -157 552 -239 233 -65 356 -109 551 -197 260 -116 412 -165 635
-204 141 -24 529 -24 670 0 226 40 365 85 655 212 197 87 318 128 580 200 107
29 225 64 262 77 156 58 299 167 385 294 217 319 359 908 339 1399 -9 234 -19
295 -51 322 -33 29 -57 29 -91 -1 l-28 -23 12 -154 c15 -188 15 -299 2 -449
-41 -451 -199 -911 -375 -1092 -105 -107 -185 -144 -508 -233 -273 -74 -395
-117 -613 -213 -355 -156 -594 -212 -904 -212 -312 0 -549 56 -909 214 -225
99 -328 137 -511 186 -327 87 -440 133 -558 224 -127 97 -234 293 -317 579
-77 264 -108 481 -109 757 -1 270 27 459 100 690 226 718 840 1163 1785 1294
671 94 1411 -5 1912 -255 453 -225 758 -569 906 -1020 18 -53 41 -105 51 -114
44 -39 120 -8 120 49 0 43 -58 211 -114 331 l-43 91 44 48 c166 184 214 478
116 719 -76 189 -237 337 -438 404 -70 23 -96 27 -210 27 -113 0 -140 -4 -207
-26 -42 -14 -106 -42 -143 -62 -62 -35 -184 -144 -217 -193 l-15 -22 -99 34
c-333 115 -696 169 -1144 169 -448 0 -811 -54 -1144 -169 l-99 -34 -15 22
c-33 49 -155 158 -217 193 -145 81 -345 113 -490 80z m256 -150 c109 -23 249
-105 298 -175 l22 -30 -68 -35 -68 -34 -39 34 c-199 172 -506 107 -618 -132
-55 -117 -48 -256 17 -369 l24 -40 -47 -63 -46 -62 -23 27 c-35 44 -79 133
-98 197 -21 77 -22 218 0 293 80 278 364 449 646 389z m3652 -1 c191 -40 362
-202 412 -390 21 -80 21 -216 0 -291 -19 -65 -63 -153 -99 -197 l-23 -29 -46
64 -45 63 23 40 c65 113 72 252 17 369 -112 239 -419 304 -618 132 l-39 -34
-68 34 -68 35 22 30 c11 16 44 47 72 68 142 106 294 141 460 106z m-3691 -305
c20 -6 46 -19 58 -28 l22 -18 -96 -69 c-53 -37 -137 -106 -185 -151 l-89 -84
-13 33 c-21 50 -17 145 9 193 25 49 94 111 137 123 42 13 113 13 157 1z m3649
0 c47 -13 114 -72 141 -124 26 -48 30 -143 9 -193 l-13 -33 -89 84 c-48 45
-131 114 -184 151 -83 59 -94 70 -82 82 37 37 145 53 218 33z"/>
<path d="M1584 3176 c-17 -8 -44 -31 -60 -52 -25 -32 -29 -46 -29 -100 0 -68
15 -98 69 -138 39 -30 143 -30 183 0 99 73 99 205 1 277 -35 26 -121 33 -164
13z"/>
<path d="M3400 3179 c-62 -25 -100 -85 -100 -157 0 -57 27 -104 80 -140 29
-20 44 -23 93 -20 99 7 152 63 152 162 0 54 -4 68 -29 100 -45 59 -127 82
-196 55z"/>
<path d="M2038 2014 c-35 -18 -48 -43 -48 -89 0 -121 186 -283 386 -336 46
-12 84 -27 84 -34 0 -20 -56 -99 -90 -128 -52 -44 -108 -68 -189 -82 -83 -15
-101 -29 -101 -81 0 -63 47 -83 152 -64 99 17 181 62 261 141 l68 68 59 -63
c71 -76 167 -128 268 -146 105 -19 152 0 152 64 0 52 -18 66 -101 81 -81 14
-137 38 -189 82 -34 29 -90 108 -90 128 0 7 38 22 84 34 200 53 386 215 386
336 0 47 -14 71 -50 90 -50 26 -123 19 -259 -27 -123 -42 -129 -42 -261 -42
-132 0 -138 0 -261 42 -136 45 -212 53 -261 26z"/>
</g>
</svg>
