<?xml version="1.0" standalone="no"?>
<!DOCTYPE svg PUBLIC "-//W3C//DTD SVG 20010904//EN"
 "http://www.w3.org/TR/2001/REC-SVG-20010904/DTD/svg10.dtd">
<svg version="1.0" xmlns="http://www.w3.org/2000/svg"
 width="512.000000pt" height="512.000000pt" viewBox="0 0 512.000000 512.000000"
 preserveAspectRatio="xMidYMid meet">

<g transform="translate(0.000000,512.000000) scale(0.100000,-0.100000)"
fill="#000000" stroke="none">
<path d="M4022 3555 c31 -66 33 -76 33 -180 0 -103 -2 -114 -32 -177 -38 -81
-109 -160 -179 -199 l-50 -29 23 -92 c35 -146 46 -273 40 -468 -13 -383 -116
-653 -337 -883 -165 -172 -362 -275 -632 -329 -96 -19 -145 -22 -328 -23 -185
0 -231 3 -328 23 -188 38 -329 94 -467 186 -57 38 60 -84 618 -642 l689 -689
61 14 c276 63 581 192 817 347 392 257 702 606 905 1021 155 317 232 608 259
985 l5 76 -565 564 -565 565 33 -70z"/>
<path d="M1275 2981 c21 -23 40 -41 41 -41 1 0 4 6 7 14 4 10 -10 24 -41 41
l-47 26 40 -40z"/>
<path d="M1959 2721 c-59 -60 -28 -161 54 -176 76 -14 141 58 117 131 -25 76
-116 100 -171 45z"/>
<path d="M3017 2722 c-35 -37 -43 -81 -23 -120 17 -34 61 -62 96 -62 62 0 118
70 105 131 -17 75 -125 106 -178 51z"/>
<path d="M2397 2231 c-76 -16 -119 -92 -95 -167 18 -55 66 -84 136 -84 l54 0
-4 -60 c-5 -66 -26 -99 -79 -120 -61 -25 -143 17 -155 80 -6 30 -7 30 -75 30
-69 0 -69 0 -69 -27 0 -16 10 -48 21 -73 68 -150 241 -200 382 -110 l46 29 56
-34 c103 -62 216 -54 304 22 47 39 91 120 91 166 0 27 0 27 -70 27 -63 0 -70
-2 -70 -20 0 -30 -57 -89 -94 -95 -75 -15 -146 50 -146 131 l0 41 62 7 c51 6
67 13 94 40 43 43 52 93 28 142 -36 72 -56 79 -227 81 -84 1 -169 -2 -190 -6z"/>
</g>
</svg>
